<svg xmlns="http://www.w3.org/2000/svg" xmlns:xlink="http://www.w3.org/1999/xlink" width="400" zoomAndPan="magnify" viewBox="0 0 300 74.999997" height="100" preserveAspectRatio="xMidYMid meet" version="1.0"><defs><g/><clipPath id="5d3f9eb6e9"><path d="M 6.75 8.554688 L 66.285156 8.554688 L 66.285156 68.09375 L 6.75 68.09375 Z M 6.75 8.554688 " clip-rule="nonzero"/></clipPath><clipPath id="cd946a1181"><path d="M 24 8.554688 L 49.035156 8.554688 C 53.613281 8.554688 58 10.375 61.234375 13.609375 C 64.46875 16.84375 66.285156 21.230469 66.285156 25.804688 L 66.285156 50.84375 C 66.285156 55.417969 64.46875 59.804688 61.234375 63.039062 C 58 66.273438 53.613281 68.09375 49.035156 68.09375 L 24 68.09375 C 19.425781 68.09375 15.039062 66.273438 11.800781 63.039062 C 8.566406 59.804688 6.75 55.417969 6.75 50.84375 L 6.75 25.804688 C 6.75 21.230469 8.566406 16.84375 11.800781 13.609375 C 15.039062 10.375 19.425781 8.554688 24 8.554688 " clip-rule="nonzero"/></clipPath><clipPath id="240dd44c11"><path d="M 15.808594 0 L 77.722656 0 L 77.722656 61.542969 L 15.808594 61.542969 Z M 15.808594 0 " clip-rule="nonzero"/></clipPath></defs><g clip-path="url(#5d3f9eb6e9)"><g clip-path="url(#cd946a1181)"><path fill="#000d47" d="M 6.75 8.554688 L 66.285156 8.554688 L 66.285156 68.09375 L 6.75 68.09375 Z M 6.75 8.554688 " fill-opacity="1" fill-rule="nonzero"/></g></g><g clip-path="url(#240dd44c11)"><path fill="#ffffff" d="M 53.144531 34.078125 C 53.320312 31.3125 52.4375 28.5625 50.394531 26.507812 C 48.261719 24.453125 45.519531 23.484375 42.851562 23.65625 C 42.59375 22.238281 41.960938 20.804688 40.808594 19.648438 L 40.71875 19.5625 L 62.804688 14.046875 L 57.3125 36.21875 C 57.226562 36.132812 57.226562 36.132812 57.140625 36.042969 C 56.074219 34.960938 54.660156 34.25 53.144531 34.078125 Z M 59.445312 2.019531 C 62.90625 3.539062 66.003906 5.753906 68.671875 8.34375 C 74.265625 14.046875 77.722656 21.789062 77.722656 30.429688 C 77.722656 38.980469 74.265625 46.726562 68.671875 52.425781 C 63.078125 58.042969 55.277344 61.515625 46.757812 61.515625 C 38.164062 61.503906 30.441406 58.03125 24.859375 52.414062 C 19.265625 46.726562 15.808594 38.96875 15.808594 30.429688 C 15.808594 21.789062 19.265625 14.035156 24.859375 8.34375 C 27.527344 5.769531 30.625 3.539062 34.085938 2.019531 C 38.066406 0.152344 42.417969 -0.742188 46.757812 -0.742188 C 51.101562 -0.742188 55.453125 0.152344 59.445312 2.019531 Z M 31.417969 52.152344 C 32.746094 53.136719 34.171875 53.933594 35.585938 54.554688 L 51.023438 38.96875 C 51.917969 38.171875 53.332031 38.171875 54.226562 38.96875 C 55.117188 39.867188 55.117188 41.285156 54.226562 42.183594 L 40.285156 56.164062 C 41.699219 56.523438 43.210938 56.785156 44.726562 56.871094 L 44.984375 56.871094 L 45.074219 56.960938 L 47.09375 56.960938 C 47.179688 56.960938 47.269531 56.960938 47.355469 56.960938 L 48.335938 56.960938 L 48.695312 56.871094 L 49.3125 56.871094 L 49.671875 56.785156 L 50.292969 56.785156 L 50.554688 56.699219 L 50.914062 56.609375 L 51.273438 56.609375 L 51.535156 56.523438 L 51.894531 56.523438 L 52.152344 56.4375 L 52.511719 56.347656 L 52.875 56.261719 L 53.132812 56.175781 L 53.492188 56.175781 L 53.753906 56.085938 L 54.113281 56 L 54.375 55.914062 L 54.734375 55.828125 L 54.992188 55.652344 L 55.351562 55.566406 L 55.613281 55.476562 L 55.972656 55.390625 L 56.234375 55.304688 L 56.59375 55.128906 L 56.855469 55.042969 L 57.214844 54.867188 L 57.472656 54.78125 L 57.734375 54.695312 L 58.09375 54.519531 L 58.355469 54.34375 L 58.613281 54.257812 L 58.972656 54.082031 L 59.234375 53.910156 C 59.410156 53.820312 59.59375 53.734375 59.855469 53.648438 L 60.117188 53.472656 L 60.375 53.300781 L 60.636719 53.125 C 60.808594 53.039062 61.082031 52.949219 61.257812 52.765625 L 61.515625 52.589844 L 61.777344 52.414062 L 62.039062 52.242188 C 62.125 52.152344 62.210938 52.066406 62.296875 52.066406 L 62.558594 51.804688 L 62.820312 51.632812 C 62.992188 51.542969 63.179688 51.371094 63.351562 51.183594 L 63.613281 51.007812 L 63.871094 50.835938 L 64.132812 50.574219 L 64.394531 50.398438 L 64.652344 50.136719 L 64.914062 49.875 L 65.175781 49.703125 L 65.433594 49.441406 L 65.695312 49.179688 C 70.929688 43.925781 73.496094 36.976562 73.496094 30.117188 C 73.496094 23.171875 70.929688 16.226562 65.695312 10.972656 C 60.375 5.71875 53.542969 3.042969 46.625 3.042969 C 39.703125 3.042969 32.933594 5.582031 27.699219 10.835938 L 27.003906 11.53125 L 26.746094 11.792969 L 26.570312 12.054688 L 26.308594 12.316406 L 26.136719 12.578125 L 25.875 12.839844 L 25.703125 13.101562 C 25.617188 13.1875 25.527344 13.273438 25.527344 13.363281 C 25.441406 13.449219 25.355469 13.535156 25.269531 13.625 L 25.09375 13.882812 L 24.921875 14.144531 L 24.746094 14.40625 L 24.488281 14.667969 L 24.3125 14.929688 L 24.140625 15.292969 C 24.140625 15.378906 24.054688 15.464844 23.964844 15.554688 L 23.792969 15.8125 L 23.621094 16.074219 L 23.445312 16.4375 L 23.359375 16.699219 L 23.183594 16.960938 L 23.011719 17.222656 C 22.925781 17.308594 22.925781 17.484375 22.839844 17.582031 L 22.75 17.84375 L 22.578125 18.105469 C 22.492188 18.191406 22.492188 18.367188 22.402344 18.464844 L 22.316406 18.726562 L 22.144531 18.988281 L 22.058594 19.351562 L 21.96875 19.609375 L 21.796875 19.972656 L 21.710938 20.234375 L 21.621094 20.59375 L 21.449219 20.855469 L 21.363281 21.21875 L 21.277344 21.480469 L 21.1875 21.839844 L 21.101562 22.101562 L 21.015625 22.460938 L 20.929688 22.722656 L 20.839844 23.085938 L 20.753906 23.347656 L 20.667969 23.707031 L 20.582031 23.96875 L 20.582031 24.328125 L 20.496094 24.691406 C 20.496094 24.777344 20.40625 24.863281 20.40625 24.953125 L 20.40625 25.3125 L 20.320312 25.574219 L 20.234375 25.933594 L 20.234375 26.296875 L 20.148438 26.558594 L 20.148438 27.179688 L 20.058594 27.542969 L 20.058594 28.523438 L 19.972656 28.886719 L 19.972656 30.828125 L 20.058594 31.003906 L 20.058594 32.222656 C 20.234375 33.640625 20.507812 35.160156 20.855469 36.59375 L 34.867188 22.4375 C 35.761719 21.640625 37.171875 21.640625 38.066406 22.4375 C 38.960938 23.332031 38.960938 24.753906 38.066406 25.648438 L 22.367188 41.371094 C 22.988281 42.792969 23.78125 44.222656 24.761719 45.554688 L 40.734375 29.445312 C 42.59375 27.578125 45.605469 27.578125 47.378906 29.445312 C 49.238281 31.3125 49.238281 34.339844 47.378906 36.117188 Z M 31.679688 61.417969 L 31.765625 61.503906 Z M 31.679688 61.417969 " fill-opacity="1" fill-rule="nonzero"/></g><g fill="#000d47" fill-opacity="1"><g transform="translate(82.557631, 53.605344)"><g><path d="M 6.285156 -25.921875 C 3.273438 -25.921875 1.621094 -24.300781 1.621094 -21.257812 L 1.621094 -13.609375 C 1.621094 -12.992188 1.910156 -12.605469 2.496094 -12.410156 L 10.175781 -9.882812 L 10.175781 -5.574219 C 10.175781 -4.699219 9.722656 -4.277344 8.878906 -4.277344 L 7.324219 -4.277344 C 6.511719 -4.277344 6.027344 -4.699219 6.027344 -5.574219 L 6.027344 -8.066406 C 6.027344 -8.425781 5.863281 -8.585938 5.507812 -8.585938 L 2.136719 -8.585938 C 1.816406 -8.585938 1.621094 -8.425781 1.621094 -8.066406 L 1.621094 -4.667969 C 1.621094 -1.621094 3.273438 0 6.285156 0 L 9.914062 0 C 12.960938 0 14.582031 -1.621094 14.582031 -4.667969 L 14.582031 -12.152344 C 14.582031 -12.765625 14.289062 -13.125 13.738281 -13.351562 L 6.027344 -15.878906 L 6.027344 -20.347656 C 6.027344 -21.191406 6.511719 -21.644531 7.324219 -21.644531 L 8.878906 -21.644531 C 9.753906 -21.644531 10.175781 -21.191406 10.175781 -20.347656 L 10.175781 -17.820312 C 10.175781 -17.496094 10.367188 -17.304688 10.691406 -17.304688 L 14.0625 -17.304688 C 14.417969 -17.304688 14.582031 -17.496094 14.582031 -17.820312 L 14.582031 -21.257812 C 14.582031 -24.300781 12.960938 -25.921875 9.914062 -25.921875 Z M 6.285156 -25.921875 "/></g></g></g><g fill="#000d47" fill-opacity="1"><g transform="translate(105.238942, 53.605344)"><g><path d="M 1.492188 -25.921875 C 1.167969 -25.921875 0.972656 -25.726562 0.972656 -25.402344 L 0.972656 -22.164062 C 0.972656 -21.839844 1.167969 -21.644531 1.492188 -21.644531 L 5.25 -21.644531 L 5.25 -0.519531 C 5.25 -0.160156 5.445312 0 5.769531 0 L 9.136719 0 C 9.492188 0 9.65625 -0.160156 9.65625 -0.519531 L 9.65625 -21.644531 L 13.414062 -21.644531 C 13.769531 -21.644531 13.933594 -21.839844 13.933594 -22.164062 L 13.933594 -25.402344 C 13.933594 -25.726562 13.769531 -25.921875 13.414062 -25.921875 Z M 1.492188 -25.921875 "/></g></g></g><g fill="#000d47" fill-opacity="1"><g transform="translate(126.624313, 53.605344)"><g><path d="M 10.953125 -25.921875 C 10.597656 -25.921875 10.304688 -25.628906 10.304688 -25.273438 L 10.304688 -5.574219 C 10.304688 -4.699219 9.851562 -4.277344 9.007812 -4.277344 L 7.324219 -4.277344 C 6.480469 -4.277344 6.027344 -4.699219 6.027344 -5.574219 L 6.027344 -25.273438 C 6.027344 -25.628906 5.734375 -25.921875 5.378906 -25.921875 L 2.269531 -25.921875 C 1.910156 -25.921875 1.621094 -25.628906 1.621094 -25.273438 L 1.621094 -4.667969 C 1.621094 -1.621094 3.242188 0 6.285156 0 L 9.914062 0 C 12.960938 0 14.582031 -1.621094 14.582031 -4.667969 L 14.582031 -25.273438 C 14.582031 -25.628906 14.289062 -25.921875 13.933594 -25.921875 Z M 10.953125 -25.921875 "/></g></g></g><g fill="#000d47" fill-opacity="1"><g transform="translate(149.305622, 53.605344)"><g><path d="M 1.621094 -0.519531 C 1.621094 -0.160156 1.78125 0 2.136719 0 L 9.914062 0 C 12.960938 0 14.582031 -1.621094 14.582031 -4.667969 L 14.582031 -21.222656 C 14.582031 -24.269531 12.960938 -25.921875 9.914062 -25.921875 L 2.136719 -25.921875 C 1.78125 -25.921875 1.621094 -25.726562 1.621094 -25.402344 Z M 6.027344 -4.277344 L 6.027344 -21.644531 L 9.007812 -21.644531 C 9.851562 -21.644531 10.304688 -21.191406 10.304688 -20.316406 L 10.304688 -5.574219 C 10.304688 -4.699219 9.851562 -4.277344 9.007812 -4.277344 Z M 6.027344 -4.277344 "/></g></g></g><g fill="#000d47" fill-opacity="1"><g transform="translate(171.986935, 53.605344)"><g><path d="M 13.21875 -25.921875 C 12.832031 -25.921875 12.605469 -25.761719 12.476562 -25.402344 L 8.847656 -16.105469 L 5.21875 -25.402344 C 5.085938 -25.761719 4.859375 -25.921875 4.472656 -25.921875 L 1.230469 -25.921875 C 0.746094 -25.921875 0.519531 -25.628906 0.710938 -25.175781 L 6.644531 -10.757812 L 6.644531 -0.648438 C 6.644531 -0.226562 6.871094 0 7.289062 0 L 10.402344 0 C 10.824219 0 11.050781 -0.226562 11.050781 -0.648438 L 11.050781 -10.757812 L 16.980469 -25.175781 C 17.171875 -25.628906 16.945312 -25.921875 16.460938 -25.921875 Z M 13.21875 -25.921875 "/></g></g></g><g fill="#000d47" fill-opacity="1"><g transform="translate(196.158591, 53.605344)"><g><path d="M 14.582031 -25.402344 C 14.582031 -25.726562 14.386719 -25.921875 14.0625 -25.921875 L 2.136719 -25.921875 C 1.78125 -25.921875 1.621094 -25.726562 1.621094 -25.402344 L 1.621094 -0.519531 C 1.621094 -0.195312 1.78125 0 2.136719 0 L 5.507812 0 C 5.832031 0 6.027344 -0.195312 6.027344 -0.519531 L 6.027344 -10.855469 L 12.117188 -10.855469 C 12.441406 -10.855469 12.636719 -11.015625 12.636719 -11.375 L 12.636719 -14.613281 C 12.636719 -14.9375 12.441406 -15.132812 12.117188 -15.132812 L 6.027344 -15.132812 L 6.027344 -21.644531 L 14.0625 -21.644531 C 14.386719 -21.644531 14.582031 -21.839844 14.582031 -22.164062 Z M 14.582031 -25.402344 "/></g></g></g><g fill="#000d47" fill-opacity="1"><g transform="translate(218.839896, 53.605344)"><g><path d="M 1.621094 -4.667969 C 1.621094 -1.621094 3.242188 0 6.285156 0 L 9.914062 0 C 12.960938 0 14.582031 -1.621094 14.582031 -4.667969 L 14.582031 -21.257812 C 14.582031 -24.300781 12.960938 -25.921875 9.914062 -25.921875 L 6.285156 -25.921875 C 3.242188 -25.921875 1.621094 -24.300781 1.621094 -21.257812 Z M 7.226562 -4.179688 C 6.382812 -4.179688 5.929688 -4.601562 5.929688 -5.476562 L 5.929688 -20.445312 C 5.929688 -21.289062 6.382812 -21.742188 7.226562 -21.742188 L 9.105469 -21.742188 C 9.949219 -21.742188 10.402344 -21.289062 10.402344 -20.445312 L 10.402344 -5.476562 C 10.402344 -4.601562 9.949219 -4.179688 9.105469 -4.179688 Z M 7.226562 -4.179688 "/></g></g></g><g fill="#000d47" fill-opacity="1"><g transform="translate(241.521209, 53.605344)"><g><path d="M 6.027344 -4.277344 L 13.738281 -4.277344 C 14.09375 -4.277344 14.257812 -4.082031 14.257812 -3.757812 L 14.257812 -0.519531 C 14.257812 -0.160156 14.09375 0 13.738281 0 L 2.136719 0 C 1.816406 0 1.621094 -0.160156 1.621094 -0.519531 L 1.621094 -25.402344 C 1.621094 -25.726562 1.816406 -25.921875 2.136719 -25.921875 L 5.507812 -25.921875 C 5.863281 -25.921875 6.027344 -25.726562 6.027344 -25.402344 Z M 6.027344 -4.277344 "/></g></g></g><g fill="#000d47" fill-opacity="1"><g transform="translate(263.878537, 53.605344)"><g><path d="M 2.136719 -25.921875 C 1.78125 -25.921875 1.621094 -25.726562 1.621094 -25.402344 L 1.621094 -0.519531 C 1.621094 -0.195312 1.78125 0 2.136719 0 L 5.507812 0 C 5.832031 0 6.027344 -0.195312 6.027344 -0.519531 L 6.027344 -25.402344 C 6.027344 -25.726562 5.832031 -25.921875 5.507812 -25.921875 Z M 2.136719 -25.921875 "/></g></g></g><g fill="#000d47" fill-opacity="1"><g transform="translate(278.006584, 53.605344)"><g><path d="M 1.621094 -4.667969 C 1.621094 -1.621094 3.242188 0 6.285156 0 L 9.914062 0 C 12.960938 0 14.582031 -1.621094 14.582031 -4.667969 L 14.582031 -21.257812 C 14.582031 -24.300781 12.960938 -25.921875 9.914062 -25.921875 L 6.285156 -25.921875 C 3.242188 -25.921875 1.621094 -24.300781 1.621094 -21.257812 Z M 7.226562 -4.179688 C 6.382812 -4.179688 5.929688 -4.601562 5.929688 -5.476562 L 5.929688 -20.445312 C 5.929688 -21.289062 6.382812 -21.742188 7.226562 -21.742188 L 9.105469 -21.742188 C 9.949219 -21.742188 10.402344 -21.289062 10.402344 -20.445312 L 10.402344 -5.476562 C 10.402344 -4.601562 9.949219 -4.179688 9.105469 -4.179688 Z M 7.226562 -4.179688 "/></g></g></g></svg>