<svg xmlns="http://www.w3.org/2000/svg" xmlns:xlink="http://www.w3.org/1999/xlink" width="382" zoomAndPan="magnify" viewBox="0 0 286.5 76.499998" height="102" preserveAspectRatio="xMidYMid meet" version="1.0"><defs><g/><clipPath id="c80a406326"><path d="M 0.863281 8.609375 L 53.453125 8.609375 L 53.453125 61.203125 L 0.863281 61.203125 Z M 0.863281 8.609375 " clip-rule="nonzero"/></clipPath><clipPath id="24c5f9e876"><path d="M 27.160156 8.609375 C 12.636719 8.609375 0.863281 20.382812 0.863281 34.90625 C 0.863281 49.429688 12.636719 61.203125 27.160156 61.203125 C 41.679688 61.203125 53.453125 49.429688 53.453125 34.90625 C 53.453125 20.382812 41.679688 8.609375 27.160156 8.609375 Z M 27.160156 8.609375 " clip-rule="nonzero"/></clipPath><linearGradient x1="-0.0000000173616" gradientTransform="matrix(0.205434, 0, 0, 0.205434, 0.862799, 8.611099)" y1="0" x2="255.999989" gradientUnits="userSpaceOnUse" y2="0" id="a43d6493cb"><stop stop-opacity="1" stop-color="rgb(100%, 87.098694%, 34.899902%)" offset="0"/><stop stop-opacity="1" stop-color="rgb(100%, 86.981201%, 34.881592%)" offset="0.0078125"/><stop stop-opacity="1" stop-color="rgb(100%, 86.74469%, 34.843445%)" offset="0.015625"/><stop stop-opacity="1" stop-color="rgb(100%, 86.508179%, 34.806824%)" offset="0.0234375"/><stop stop-opacity="1" stop-color="rgb(100%, 86.273193%, 34.770203%)" offset="0.03125"/><stop stop-opacity="1" stop-color="rgb(100%, 86.036682%, 34.733582%)" offset="0.0390625"/><stop stop-opacity="1" stop-color="rgb(100%, 85.801697%, 34.69696%)" offset="0.046875"/><stop stop-opacity="1" stop-color="rgb(100%, 85.565186%, 34.660339%)" offset="0.0546875"/><stop stop-opacity="1" stop-color="rgb(100%, 85.328674%, 34.623718%)" offset="0.0625"/><stop stop-opacity="1" stop-color="rgb(100%, 85.093689%, 34.587097%)" offset="0.0703125"/><stop stop-opacity="1" stop-color="rgb(100%, 84.857178%, 34.550476%)" offset="0.078125"/><stop stop-opacity="1" stop-color="rgb(100%, 84.620667%, 34.513855%)" offset="0.0859375"/><stop stop-opacity="1" stop-color="rgb(100%, 84.385681%, 34.477234%)" offset="0.09375"/><stop stop-opacity="1" stop-color="rgb(100%, 84.14917%, 34.440613%)" offset="0.101563"/><stop stop-opacity="1" stop-color="rgb(100%, 83.914185%, 34.403992%)" offset="0.109375"/><stop stop-opacity="1" stop-color="rgb(100%, 83.677673%, 34.367371%)" offset="0.117188"/><stop stop-opacity="1" stop-color="rgb(100%, 83.441162%, 34.33075%)" offset="0.125"/><stop stop-opacity="1" stop-color="rgb(100%, 83.206177%, 34.292603%)" offset="0.132812"/><stop stop-opacity="1" stop-color="rgb(100%, 82.969666%, 34.255981%)" offset="0.140625"/><stop stop-opacity="1" stop-color="rgb(100%, 82.73468%, 34.21936%)" offset="0.148437"/><stop stop-opacity="1" stop-color="rgb(100%, 82.498169%, 34.182739%)" offset="0.15625"/><stop stop-opacity="1" stop-color="rgb(100%, 82.261658%, 34.146118%)" offset="0.164062"/><stop stop-opacity="1" stop-color="rgb(100%, 82.026672%, 34.109497%)" offset="0.171875"/><stop stop-opacity="1" stop-color="rgb(100%, 81.790161%, 34.072876%)" offset="0.179687"/><stop stop-opacity="1" stop-color="rgb(100%, 81.55365%, 34.036255%)" offset="0.1875"/><stop stop-opacity="1" stop-color="rgb(100%, 81.318665%, 33.999634%)" offset="0.195312"/><stop stop-opacity="1" stop-color="rgb(100%, 81.082153%, 33.963013%)" offset="0.203125"/><stop stop-opacity="1" stop-color="rgb(100%, 80.847168%, 33.926392%)" offset="0.210937"/><stop stop-opacity="1" stop-color="rgb(100%, 80.610657%, 33.889771%)" offset="0.21875"/><stop stop-opacity="1" stop-color="rgb(100%, 80.374146%, 33.853149%)" offset="0.226562"/><stop stop-opacity="1" stop-color="rgb(100%, 80.13916%, 33.816528%)" offset="0.234375"/><stop stop-opacity="1" stop-color="rgb(100%, 79.902649%, 33.779907%)" offset="0.242187"/><stop stop-opacity="1" stop-color="rgb(100%, 79.666138%, 33.743286%)" offset="0.25"/><stop stop-opacity="1" stop-color="rgb(100%, 79.431152%, 33.705139%)" offset="0.257812"/><stop stop-opacity="1" stop-color="rgb(100%, 79.194641%, 33.668518%)" offset="0.265625"/><stop stop-opacity="1" stop-color="rgb(100%, 78.959656%, 33.631897%)" offset="0.273438"/><stop stop-opacity="1" stop-color="rgb(100%, 78.723145%, 33.595276%)" offset="0.28125"/><stop stop-opacity="1" stop-color="rgb(100%, 78.486633%, 33.558655%)" offset="0.289062"/><stop stop-opacity="1" stop-color="rgb(100%, 78.251648%, 33.522034%)" offset="0.296875"/><stop stop-opacity="1" stop-color="rgb(100%, 78.015137%, 33.485413%)" offset="0.304688"/><stop stop-opacity="1" stop-color="rgb(100%, 77.778625%, 33.448792%)" offset="0.3125"/><stop stop-opacity="1" stop-color="rgb(100%, 77.54364%, 33.41217%)" offset="0.320312"/><stop stop-opacity="1" stop-color="rgb(100%, 77.307129%, 33.375549%)" offset="0.328125"/><stop stop-opacity="1" stop-color="rgb(100%, 77.072144%, 33.338928%)" offset="0.335938"/><stop stop-opacity="1" stop-color="rgb(100%, 76.835632%, 33.302307%)" offset="0.34375"/><stop stop-opacity="1" stop-color="rgb(100%, 76.599121%, 33.265686%)" offset="0.351562"/><stop stop-opacity="1" stop-color="rgb(100%, 76.364136%, 33.229065%)" offset="0.359375"/><stop stop-opacity="1" stop-color="rgb(100%, 76.127625%, 33.192444%)" offset="0.367188"/><stop stop-opacity="1" stop-color="rgb(100%, 75.891113%, 33.154297%)" offset="0.375"/><stop stop-opacity="1" stop-color="rgb(100%, 75.656128%, 33.117676%)" offset="0.382812"/><stop stop-opacity="1" stop-color="rgb(100%, 75.419617%, 33.081055%)" offset="0.390625"/><stop stop-opacity="1" stop-color="rgb(100%, 75.184631%, 33.044434%)" offset="0.398438"/><stop stop-opacity="1" stop-color="rgb(100%, 74.94812%, 33.007812%)" offset="0.40625"/><stop stop-opacity="1" stop-color="rgb(100%, 74.711609%, 32.971191%)" offset="0.414062"/><stop stop-opacity="1" stop-color="rgb(100%, 74.476624%, 32.93457%)" offset="0.421875"/><stop stop-opacity="1" stop-color="rgb(100%, 74.240112%, 32.897949%)" offset="0.429687"/><stop stop-opacity="1" stop-color="rgb(100%, 74.003601%, 32.861328%)" offset="0.4375"/><stop stop-opacity="1" stop-color="rgb(100%, 73.768616%, 32.824707%)" offset="0.445312"/><stop stop-opacity="1" stop-color="rgb(100%, 73.532104%, 32.788086%)" offset="0.453125"/><stop stop-opacity="1" stop-color="rgb(100%, 73.297119%, 32.751465%)" offset="0.460937"/><stop stop-opacity="1" stop-color="rgb(100%, 73.060608%, 32.714844%)" offset="0.46875"/><stop stop-opacity="1" stop-color="rgb(100%, 72.824097%, 32.678223%)" offset="0.476562"/><stop stop-opacity="1" stop-color="rgb(100%, 72.589111%, 32.641602%)" offset="0.484375"/><stop stop-opacity="1" stop-color="rgb(100%, 72.3526%, 32.60498%)" offset="0.492187"/><stop stop-opacity="1" stop-color="rgb(100%, 72.116089%, 32.566833%)" offset="0.5"/><stop stop-opacity="1" stop-color="rgb(100%, 71.881104%, 32.530212%)" offset="0.507812"/><stop stop-opacity="1" stop-color="rgb(100%, 71.644592%, 32.493591%)" offset="0.515625"/><stop stop-opacity="1" stop-color="rgb(100%, 71.409607%, 32.45697%)" offset="0.523438"/><stop stop-opacity="1" stop-color="rgb(100%, 71.173096%, 32.420349%)" offset="0.53125"/><stop stop-opacity="1" stop-color="rgb(100%, 70.936584%, 32.383728%)" offset="0.539062"/><stop stop-opacity="1" stop-color="rgb(100%, 70.701599%, 32.347107%)" offset="0.546875"/><stop stop-opacity="1" stop-color="rgb(100%, 70.465088%, 32.310486%)" offset="0.554688"/><stop stop-opacity="1" stop-color="rgb(100%, 70.228577%, 32.273865%)" offset="0.5625"/><stop stop-opacity="1" stop-color="rgb(100%, 69.993591%, 32.237244%)" offset="0.570312"/><stop stop-opacity="1" stop-color="rgb(100%, 69.75708%, 32.200623%)" offset="0.578125"/><stop stop-opacity="1" stop-color="rgb(100%, 69.522095%, 32.164001%)" offset="0.585938"/><stop stop-opacity="1" stop-color="rgb(100%, 69.285583%, 32.12738%)" offset="0.59375"/><stop stop-opacity="1" stop-color="rgb(100%, 69.049072%, 32.090759%)" offset="0.601562"/><stop stop-opacity="1" stop-color="rgb(100%, 68.814087%, 32.054138%)" offset="0.609375"/><stop stop-opacity="1" stop-color="rgb(100%, 68.577576%, 32.017517%)" offset="0.617188"/><stop stop-opacity="1" stop-color="rgb(100%, 68.341064%, 31.97937%)" offset="0.625"/><stop stop-opacity="1" stop-color="rgb(100%, 68.106079%, 31.942749%)" offset="0.632812"/><stop stop-opacity="1" stop-color="rgb(100%, 67.869568%, 31.906128%)" offset="0.640625"/><stop stop-opacity="1" stop-color="rgb(100%, 67.634583%, 31.869507%)" offset="0.648438"/><stop stop-opacity="1" stop-color="rgb(100%, 67.398071%, 31.832886%)" offset="0.65625"/><stop stop-opacity="1" stop-color="rgb(100%, 67.16156%, 31.796265%)" offset="0.664062"/><stop stop-opacity="1" stop-color="rgb(100%, 66.926575%, 31.759644%)" offset="0.671875"/><stop stop-opacity="1" stop-color="rgb(100%, 66.690063%, 31.723022%)" offset="0.679688"/><stop stop-opacity="1" stop-color="rgb(100%, 66.453552%, 31.686401%)" offset="0.6875"/><stop stop-opacity="1" stop-color="rgb(100%, 66.218567%, 31.64978%)" offset="0.695312"/><stop stop-opacity="1" stop-color="rgb(100%, 65.982056%, 31.613159%)" offset="0.703125"/><stop stop-opacity="1" stop-color="rgb(100%, 65.74707%, 31.576538%)" offset="0.710938"/><stop stop-opacity="1" stop-color="rgb(100%, 65.510559%, 31.539917%)" offset="0.71875"/><stop stop-opacity="1" stop-color="rgb(100%, 65.274048%, 31.503296%)" offset="0.726562"/><stop stop-opacity="1" stop-color="rgb(100%, 65.039062%, 31.466675%)" offset="0.734375"/><stop stop-opacity="1" stop-color="rgb(100%, 64.802551%, 31.428528%)" offset="0.742188"/><stop stop-opacity="1" stop-color="rgb(100%, 64.56604%, 31.391907%)" offset="0.75"/><stop stop-opacity="1" stop-color="rgb(100%, 64.331055%, 31.355286%)" offset="0.757812"/><stop stop-opacity="1" stop-color="rgb(100%, 64.094543%, 31.318665%)" offset="0.765625"/><stop stop-opacity="1" stop-color="rgb(100%, 63.859558%, 31.282043%)" offset="0.773438"/><stop stop-opacity="1" stop-color="rgb(100%, 63.623047%, 31.245422%)" offset="0.78125"/><stop stop-opacity="1" stop-color="rgb(100%, 63.386536%, 31.208801%)" offset="0.789062"/><stop stop-opacity="1" stop-color="rgb(100%, 63.15155%, 31.17218%)" offset="0.796875"/><stop stop-opacity="1" stop-color="rgb(100%, 62.915039%, 31.135559%)" offset="0.804688"/><stop stop-opacity="1" stop-color="rgb(100%, 62.678528%, 31.098938%)" offset="0.8125"/><stop stop-opacity="1" stop-color="rgb(100%, 62.443542%, 31.062317%)" offset="0.820312"/><stop stop-opacity="1" stop-color="rgb(100%, 62.207031%, 31.025696%)" offset="0.828125"/><stop stop-opacity="1" stop-color="rgb(100%, 61.972046%, 30.989075%)" offset="0.835937"/><stop stop-opacity="1" stop-color="rgb(100%, 61.735535%, 30.952454%)" offset="0.84375"/><stop stop-opacity="1" stop-color="rgb(100%, 61.499023%, 30.915833%)" offset="0.851562"/><stop stop-opacity="1" stop-color="rgb(100%, 61.264038%, 30.879211%)" offset="0.859375"/><stop stop-opacity="1" stop-color="rgb(100%, 61.027527%, 30.841064%)" offset="0.867187"/><stop stop-opacity="1" stop-color="rgb(100%, 60.791016%, 30.804443%)" offset="0.875"/><stop stop-opacity="1" stop-color="rgb(100%, 60.55603%, 30.767822%)" offset="0.882812"/><stop stop-opacity="1" stop-color="rgb(100%, 60.319519%, 30.731201%)" offset="0.890625"/><stop stop-opacity="1" stop-color="rgb(100%, 60.084534%, 30.69458%)" offset="0.898437"/><stop stop-opacity="1" stop-color="rgb(100%, 59.848022%, 30.657959%)" offset="0.90625"/><stop stop-opacity="1" stop-color="rgb(100%, 59.611511%, 30.621338%)" offset="0.914062"/><stop stop-opacity="1" stop-color="rgb(100%, 59.376526%, 30.584717%)" offset="0.921875"/><stop stop-opacity="1" stop-color="rgb(100%, 59.140015%, 30.548096%)" offset="0.929687"/><stop stop-opacity="1" stop-color="rgb(100%, 58.903503%, 30.511475%)" offset="0.9375"/><stop stop-opacity="1" stop-color="rgb(100%, 58.668518%, 30.474854%)" offset="0.945312"/><stop stop-opacity="1" stop-color="rgb(100%, 58.432007%, 30.438232%)" offset="0.953125"/><stop stop-opacity="1" stop-color="rgb(100%, 58.197021%, 30.401611%)" offset="0.960937"/><stop stop-opacity="1" stop-color="rgb(100%, 57.96051%, 30.36499%)" offset="0.96875"/><stop stop-opacity="1" stop-color="rgb(100%, 57.723999%, 30.328369%)" offset="0.976562"/><stop stop-opacity="1" stop-color="rgb(100%, 57.489014%, 30.291748%)" offset="0.984375"/><stop stop-opacity="1" stop-color="rgb(100%, 57.252502%, 30.253601%)" offset="0.992188"/><stop stop-opacity="1" stop-color="rgb(100%, 57.015991%, 30.21698%)" offset="1"/></linearGradient><clipPath id="6f2b352f2f"><path d="M 18.863281 57 L 35.589844 57 L 35.589844 61.054688 L 18.863281 61.054688 Z M 18.863281 57 " clip-rule="nonzero"/></clipPath><clipPath id="87d501aee3"><path d="M 15.519531 20.035156 L 38.667969 20.035156 L 38.667969 56.898438 L 15.519531 56.898438 Z M 15.519531 20.035156 " clip-rule="nonzero"/></clipPath></defs><g clip-path="url(#c80a406326)"><g clip-path="url(#24c5f9e876)"><path fill="url(#a43d6493cb)" d="M 0.863281 8.609375 L 0.863281 61.203125 L 53.453125 61.203125 L 53.453125 8.609375 Z M 0.863281 8.609375 " fill-rule="nonzero"/></g></g><g clip-path="url(#6f2b352f2f)"><path fill="#ffffff" d="M 19.722656 57.402344 L 18.902344 61.054688 C 19.8125 61.054688 34.375 61.054688 35.285156 61.054688 L 34.464844 57.402344 C 34.046875 57.402344 20.140625 57.402344 19.722656 57.402344 " fill-opacity="1" fill-rule="nonzero"/></g><g clip-path="url(#87d501aee3)"><path fill="#ffffff" d="M 34.246094 56.578125 C 35.230469 51.785156 36.722656 47.25 38.667969 42.945312 C 33.210938 39.214844 30.296875 30.933594 27.757812 21.980469 C 28.035156 21.773438 28.214844 21.445312 28.214844 21.074219 C 28.214844 20.601562 27.917969 20.199219 27.503906 20.035156 C 27.503906 21.882812 27.503906 44.03125 27.503906 45.050781 C 28.496094 45.242188 29.238281 46.113281 29.238281 47.160156 C 29.238281 48.347656 28.28125 49.3125 27.09375 49.3125 C 25.910156 49.3125 24.949219 48.347656 24.949219 47.160156 C 24.949219 46.113281 25.695312 45.242188 26.683594 45.050781 C 26.683594 44.03125 26.683594 21.882812 26.683594 20.035156 C 26.269531 20.199219 25.972656 20.601562 25.972656 21.074219 C 25.972656 21.445312 26.152344 21.773438 26.429688 21.980469 C 23.890625 30.933594 20.980469 39.214844 15.519531 42.945312 C 17.464844 47.25 18.957031 51.785156 19.941406 56.578125 C 20.34375 56.578125 33.84375 56.578125 34.246094 56.578125 " fill-opacity="1" fill-rule="nonzero"/></g><g fill="#ff914d" fill-opacity="1"><g transform="translate(64.673659, 48.598293)"><g><path d="M 14.546875 0 L 9.890625 0 L -0.78125 -19.90625 L 7.140625 -19.90625 L 12 -9.15625 L 16.765625 -19.90625 L 21.5 -19.90625 L 26.28125 -9.15625 L 31.125 -19.90625 L 39.046875 -19.90625 L 28.375 0 L 23.71875 0 L 19.140625 -10.28125 Z M 14.546875 0 "/></g></g></g><g fill="#ff914d" fill-opacity="1"><g transform="translate(99.288762, 48.598293)"><g><path d="M 2.328125 0 L 2.328125 -19.90625 L 9.203125 -19.90625 L 9.203125 -17.03125 L 9.28125 -17.03125 C 9.332031 -17.132812 9.414062 -17.265625 9.53125 -17.421875 C 9.644531 -17.578125 9.894531 -17.847656 10.28125 -18.234375 C 10.675781 -18.628906 11.09375 -18.976562 11.53125 -19.28125 C 11.96875 -19.59375 12.535156 -19.875 13.234375 -20.125 C 13.929688 -20.375 14.644531 -20.5 15.375 -20.5 C 16.125 -20.5 16.859375 -20.394531 17.578125 -20.1875 C 18.304688 -19.976562 18.835938 -19.769531 19.171875 -19.5625 L 19.71875 -19.25 L 16.84375 -13.421875 C 15.988281 -14.148438 14.800781 -14.515625 13.28125 -14.515625 C 12.445312 -14.515625 11.734375 -14.332031 11.140625 -13.96875 C 10.546875 -13.601562 10.125 -13.160156 9.875 -12.640625 C 9.632812 -12.128906 9.460938 -11.691406 9.359375 -11.328125 C 9.253906 -10.972656 9.203125 -10.691406 9.203125 -10.484375 L 9.203125 0 Z M 2.328125 0 "/></g></g></g><g fill="#ff914d" fill-opacity="1"><g transform="translate(114.965873, 48.598293)"><g><path d="M 2.984375 -31.015625 C 3.785156 -31.816406 4.742188 -32.21875 5.859375 -32.21875 C 6.972656 -32.21875 7.929688 -31.816406 8.734375 -31.015625 C 9.535156 -30.210938 9.9375 -29.253906 9.9375 -28.140625 C 9.9375 -27.023438 9.535156 -26.066406 8.734375 -25.265625 C 7.929688 -24.460938 6.972656 -24.0625 5.859375 -24.0625 C 4.742188 -24.0625 3.785156 -24.460938 2.984375 -25.265625 C 2.179688 -26.066406 1.78125 -27.023438 1.78125 -28.140625 C 1.78125 -29.253906 2.179688 -30.210938 2.984375 -31.015625 Z M 2.328125 -19.90625 L 2.328125 0 L 9.203125 0 L 9.203125 -19.90625 Z M 2.328125 -19.90625 "/></g></g></g><g fill="#ff914d" fill-opacity="1"><g transform="translate(123.036745, 48.598293)"><g><path d="M 3.5 -19.90625 L 3.5 -27.328125 L 10.359375 -27.328125 L 10.359375 -19.90625 L 14.546875 -19.90625 L 14.546875 -14.671875 L 10.359375 -14.671875 L 10.359375 -8.34375 C 10.359375 -6.507812 10.878906 -5.59375 11.921875 -5.59375 C 12.171875 -5.59375 12.4375 -5.644531 12.71875 -5.75 C 13.007812 -5.851562 13.234375 -5.957031 13.390625 -6.0625 L 13.625 -6.203125 L 15.328125 -0.65625 C 13.859375 0.164062 12.175781 0.578125 10.28125 0.578125 C 8.988281 0.578125 7.875 0.351562 6.9375 -0.09375 C 6.007812 -0.550781 5.304688 -1.160156 4.828125 -1.921875 C 4.347656 -2.679688 4.003906 -3.484375 3.796875 -4.328125 C 3.597656 -5.171875 3.5 -6.070312 3.5 -7.03125 L 3.5 -14.671875 L 0.625 -14.671875 L 0.625 -19.90625 Z M 3.5 -19.90625 "/></g></g></g><g fill="#ff914d" fill-opacity="1"><g transform="translate(134.716693, 48.598293)"><g><path d="M 22.46875 -9 L 8.03125 -9 C 8.03125 -7.601562 8.484375 -6.566406 9.390625 -5.890625 C 10.296875 -5.222656 11.28125 -4.890625 12.34375 -4.890625 C 13.457031 -4.890625 14.335938 -5.035156 14.984375 -5.328125 C 15.628906 -5.628906 16.363281 -6.222656 17.1875 -7.109375 L 22.15625 -4.625 C 20.09375 -1.15625 16.65625 0.578125 11.84375 0.578125 C 8.832031 0.578125 6.253906 -0.445312 4.109375 -2.5 C 1.960938 -4.5625 0.890625 -7.039062 0.890625 -9.9375 C 0.890625 -12.832031 1.960938 -15.316406 4.109375 -17.390625 C 6.253906 -19.460938 8.832031 -20.5 11.84375 -20.5 C 15 -20.5 17.566406 -19.582031 19.546875 -17.75 C 21.523438 -15.925781 22.515625 -13.320312 22.515625 -9.9375 C 22.515625 -9.46875 22.5 -9.15625 22.46875 -9 Z M 8.234375 -12.8125 L 15.796875 -12.8125 C 15.640625 -13.84375 15.226562 -14.632812 14.5625 -15.1875 C 13.90625 -15.75 13.0625 -16.03125 12.03125 -16.03125 C 10.894531 -16.03125 9.988281 -15.734375 9.3125 -15.140625 C 8.644531 -14.546875 8.285156 -13.769531 8.234375 -12.8125 Z M 8.234375 -12.8125 "/></g></g></g><g fill="#ff914d" fill-opacity="1"><g transform="translate(154.468572, 48.598293)"><g><path d="M 10.984375 -20.5 C 12.117188 -20.5 13.242188 -20.367188 14.359375 -20.109375 C 15.472656 -19.847656 16.300781 -19.585938 16.84375 -19.328125 L 17.65625 -18.9375 L 15.40625 -14.4375 C 13.851562 -15.269531 12.378906 -15.6875 10.984375 -15.6875 C 10.203125 -15.6875 9.648438 -15.597656 9.328125 -15.421875 C 9.003906 -15.253906 8.84375 -14.941406 8.84375 -14.484375 C 8.84375 -14.378906 8.851562 -14.273438 8.875 -14.171875 C 8.90625 -14.066406 8.957031 -13.96875 9.03125 -13.875 C 9.113281 -13.78125 9.1875 -13.703125 9.25 -13.640625 C 9.320312 -13.578125 9.429688 -13.503906 9.578125 -13.421875 C 9.734375 -13.347656 9.859375 -13.289062 9.953125 -13.25 C 10.046875 -13.21875 10.195312 -13.160156 10.40625 -13.078125 C 10.613281 -13.003906 10.765625 -12.945312 10.859375 -12.90625 C 10.960938 -12.863281 11.140625 -12.800781 11.390625 -12.71875 C 11.640625 -12.644531 11.828125 -12.597656 11.953125 -12.578125 C 12.753906 -12.335938 13.453125 -12.078125 14.046875 -11.796875 C 14.640625 -11.515625 15.265625 -11.125 15.921875 -10.625 C 16.585938 -10.132812 17.101562 -9.515625 17.46875 -8.765625 C 17.832031 -8.015625 18.015625 -7.160156 18.015625 -6.203125 C 18.015625 -1.679688 14.867188 0.578125 8.578125 0.578125 C 7.148438 0.578125 5.796875 0.359375 4.515625 -0.078125 C 3.234375 -0.515625 2.3125 -0.953125 1.75 -1.390625 L 0.890625 -2.09375 L 3.6875 -6.796875 C 3.894531 -6.609375 4.164062 -6.390625 4.5 -6.140625 C 4.832031 -5.898438 5.4375 -5.566406 6.3125 -5.140625 C 7.195312 -4.710938 7.960938 -4.5 8.609375 -4.5 C 10.035156 -4.5 10.75 -4.976562 10.75 -5.9375 C 10.75 -6.375 10.566406 -6.710938 10.203125 -6.953125 C 9.847656 -7.203125 9.234375 -7.484375 8.359375 -7.796875 C 7.492188 -8.109375 6.816406 -8.394531 6.328125 -8.65625 C 5.085938 -9.300781 4.101562 -10.03125 3.375 -10.84375 C 2.65625 -11.664062 2.296875 -12.75 2.296875 -14.09375 C 2.296875 -16.101562 3.078125 -17.671875 4.640625 -18.796875 C 6.203125 -19.929688 8.316406 -20.5 10.984375 -20.5 Z M 10.984375 -20.5 "/></g></g></g><g fill="#ff914d" fill-opacity="1"><g transform="translate(169.912844, 48.598293)"><g><path d="M 2.328125 0 L 2.328125 -19.90625 L 9.203125 -19.90625 L 9.203125 -17.8125 L 9.28125 -17.8125 C 11.0625 -19.601562 12.960938 -20.5 14.984375 -20.5 C 16.429688 -20.5 17.785156 -20.195312 19.046875 -19.59375 C 20.316406 -19 21.273438 -18.082031 21.921875 -16.84375 C 23.941406 -19.28125 26.144531 -20.5 28.53125 -20.5 C 30.644531 -20.5 32.46875 -19.898438 34 -18.703125 C 35.53125 -17.515625 36.296875 -15.65625 36.296875 -13.125 L 36.296875 0 L 29.421875 0 L 29.421875 -11.25 C 29.421875 -12.3125 29.128906 -13.195312 28.546875 -13.90625 C 27.960938 -14.625 27.085938 -14.984375 25.921875 -14.984375 C 24.910156 -14.984375 24.140625 -14.675781 23.609375 -14.0625 C 23.085938 -13.457031 22.800781 -12.726562 22.75 -11.875 L 22.75 0 L 15.875 0 L 15.875 -11.25 C 15.875 -12.3125 15.582031 -13.195312 15 -13.90625 C 14.414062 -14.625 13.539062 -14.984375 12.375 -14.984375 C 11.320312 -14.984375 10.53125 -14.648438 10 -13.984375 C 9.46875 -13.328125 9.203125 -12.546875 9.203125 -11.640625 L 9.203125 0 Z M 2.328125 0 "/></g></g></g><g fill="#ff914d" fill-opacity="1"><g transform="translate(204.489142, 48.598293)"><g><path d="M 2.984375 -31.015625 C 3.785156 -31.816406 4.742188 -32.21875 5.859375 -32.21875 C 6.972656 -32.21875 7.929688 -31.816406 8.734375 -31.015625 C 9.535156 -30.210938 9.9375 -29.253906 9.9375 -28.140625 C 9.9375 -27.023438 9.535156 -26.066406 8.734375 -25.265625 C 7.929688 -24.460938 6.972656 -24.0625 5.859375 -24.0625 C 4.742188 -24.0625 3.785156 -24.460938 2.984375 -25.265625 C 2.179688 -26.066406 1.78125 -27.023438 1.78125 -28.140625 C 1.78125 -29.253906 2.179688 -30.210938 2.984375 -31.015625 Z M 2.328125 -19.90625 L 2.328125 0 L 9.203125 0 L 9.203125 -19.90625 Z M 2.328125 -19.90625 "/></g></g></g><g fill="#ff914d" fill-opacity="1"><g transform="translate(212.56001, 48.598293)"><g><path d="M 3.5 -19.90625 L 3.5 -27.328125 L 10.359375 -27.328125 L 10.359375 -19.90625 L 14.546875 -19.90625 L 14.546875 -14.671875 L 10.359375 -14.671875 L 10.359375 -8.34375 C 10.359375 -6.507812 10.878906 -5.59375 11.921875 -5.59375 C 12.171875 -5.59375 12.4375 -5.644531 12.71875 -5.75 C 13.007812 -5.851562 13.234375 -5.957031 13.390625 -6.0625 L 13.625 -6.203125 L 15.328125 -0.65625 C 13.859375 0.164062 12.175781 0.578125 10.28125 0.578125 C 8.988281 0.578125 7.875 0.351562 6.9375 -0.09375 C 6.007812 -0.550781 5.304688 -1.160156 4.828125 -1.921875 C 4.347656 -2.679688 4.003906 -3.484375 3.796875 -4.328125 C 3.597656 -5.171875 3.5 -6.070312 3.5 -7.03125 L 3.5 -14.671875 L 0.625 -14.671875 L 0.625 -19.90625 Z M 3.5 -19.90625 "/></g></g></g><g fill="#ff914d" fill-opacity="1"><g transform="translate(224.239954, 48.598293)"><g><path d="M 2.328125 0 L 2.328125 -33.375 L 9.203125 -33.375 L 9.203125 -17.8125 L 9.28125 -17.8125 C 11.0625 -19.601562 12.960938 -20.5 14.984375 -20.5 C 15.960938 -20.5 16.9375 -20.367188 17.90625 -20.109375 C 18.882812 -19.847656 19.816406 -19.445312 20.703125 -18.90625 C 21.597656 -18.363281 22.320312 -17.59375 22.875 -16.59375 C 23.4375 -15.59375 23.71875 -14.4375 23.71875 -13.125 L 23.71875 0 L 16.84375 0 L 16.84375 -11.25 C 16.84375 -12.289062 16.507812 -13.195312 15.84375 -13.96875 C 15.1875 -14.75 14.332031 -15.140625 13.28125 -15.140625 C 12.238281 -15.140625 11.296875 -14.738281 10.453125 -13.9375 C 9.617188 -13.132812 9.203125 -12.238281 9.203125 -11.25 L 9.203125 0 Z M 2.328125 0 "/></g></g></g><g fill="#ff914d" fill-opacity="1"><g transform="translate(246.24267, 48.598293)"><g/></g></g><g fill="#ff914d" fill-opacity="1"><g transform="translate(253.188123, 48.598293)"><g><path d="M 6.75 -8.3125 C 7.988281 -8.3125 9.039062 -7.875 9.90625 -7 C 10.78125 -6.132812 11.21875 -5.082031 11.21875 -3.84375 C 11.21875 -2.625 10.78125 -1.582031 9.90625 -0.71875 C 9.039062 0.144531 7.988281 0.578125 6.75 0.578125 C 5.53125 0.578125 4.488281 0.144531 3.625 -0.71875 C 2.757812 -1.582031 2.328125 -2.625 2.328125 -3.84375 C 2.328125 -5.082031 2.757812 -6.132812 3.625 -7 C 4.488281 -7.875 5.53125 -8.3125 6.75 -8.3125 Z M 6.75 -8.3125 "/></g></g></g></svg>