<svg width="234" height="48" viewBox="0 0 234 48" fill="none" xmlns="http://www.w3.org/2000/svg">
<mask id="mask0_203_2" style="mask-type:luminance" maskUnits="userSpaceOnUse" x="0" y="0" width="40" height="41">
<path d="M0 0H39.9421V40.1221H0V0Z" fill="white"/>
</mask>
<g mask="url(#mask0_203_2)">
<mask id="mask1_203_2" style="mask-type:luminance" maskUnits="userSpaceOnUse" x="0" y="0" width="40" height="41">
<path d="M19.9725 0C8.94195 0 0 8.98159 0 20.0611C0 31.1405 8.94195 40.1221 19.9725 40.1221C31.0002 40.1221 39.9421 31.1405 39.9421 20.0611C39.9421 8.98159 31.0002 0 19.9725 0Z" fill="white"/>
</mask>
<g mask="url(#mask1_203_2)">
<path d="M0 0V40.1221H39.9421V0H0Z" fill="url(#paint0_linear_203_2)"/>
</g>
</g>
<mask id="mask2_203_2" style="mask-type:luminance" maskUnits="userSpaceOnUse" x="12" y="12" width="18" height="29">
<path d="M12 12H29.5813V40.1218H12V12Z" fill="white"/>
</mask>
<g mask="url(#mask2_203_2)">
<path d="M26.2229 39.8775C26.9705 36.2211 28.1038 32.7614 29.5813 29.4774C25.4367 26.6316 23.2234 20.3141 21.295 13.484C21.5056 13.3261 21.6421 13.0758 21.6421 12.7927C21.6421 12.4321 21.4166 12.1252 21.1022 12C21.1022 13.4095 21.1022 30.3059 21.1022 31.0836C21.8557 31.2297 22.4194 31.8942 22.4194 32.6928C22.4194 33.5987 21.6926 34.3348 20.7906 34.3348C19.8917 34.3348 19.1619 33.5987 19.1619 32.6928C19.1619 31.8942 19.7285 31.2297 20.4791 31.0836C20.4791 30.3059 20.4791 13.4095 20.4791 12C20.1646 12.1252 19.9392 12.4321 19.9392 12.7927C19.9392 13.0758 20.0756 13.3261 20.2863 13.484C18.3579 20.3141 16.1476 26.6316 12 29.4774C13.4775 32.7614 14.6108 36.2211 15.3584 39.8775C15.664 39.8775 25.9173 39.8775 26.2229 39.8775Z" fill="white"/>
</g>
<path d="M59.1695 36.469H54.9277L45.2057 18.2542H52.4225L56.8493 28.0908L61.1908 18.2542H65.5038L69.8595 28.0908L74.2721 18.2542H81.4889L71.7669 36.469H67.5251L63.3544 27.0613L59.1695 36.469Z" fill="#FF914D"/>
<path d="M79.5725 36.469V18.2541H85.8356V20.8848H85.9068C85.953 20.7919 86.0278 20.6704 86.1345 20.5274C86.2377 20.3844 86.4655 20.1378 86.8178 19.7839C87.1772 19.4229 87.5579 19.1048 87.9565 18.826C88.3551 18.5401 88.8711 18.2827 89.508 18.054C90.1415 17.8252 90.7927 17.7108 91.4581 17.7108C92.1414 17.7108 92.8104 17.8073 93.4652 17.9968C94.1271 18.1898 94.611 18.3792 94.9171 18.5687L95.4153 18.8546L92.7962 24.1875C92.0168 23.5227 90.935 23.1867 89.5507 23.1867C88.7892 23.1867 88.1416 23.3547 87.6007 23.6871C87.0597 24.0231 86.6754 24.427 86.4477 24.9024C86.227 25.3706 86.0705 25.771 85.9779 26.1034C85.8819 26.4286 85.8356 26.686 85.8356 26.8754V36.469H79.5725Z" fill="#FF914D"/>
<path d="M94.452 8.08869C95.1815 7.35595 96.0534 6.98779 97.0711 6.98779C98.0853 6.98779 98.9572 7.35595 99.6902 8.08869C100.42 8.82501 100.786 9.70072 100.786 10.7194C100.786 11.7417 100.42 12.6174 99.6902 13.3501C98.9572 14.0864 98.0853 14.451 97.0711 14.451C96.0534 14.451 95.1815 14.0864 94.452 13.3501C93.7189 12.6174 93.356 11.7417 93.356 10.7194C93.356 9.70072 93.7189 8.82501 94.452 8.08869ZM93.8542 18.2541V36.469H100.117V18.2541H93.8542Z" fill="#FF914D"/>
<path d="M102.274 18.2541V11.4629H108.523V18.2541H112.338V23.0438H108.523V28.8342C108.523 30.5142 108.996 31.3506 109.947 31.3506C110.174 31.3506 110.416 31.3041 110.672 31.2076C110.936 31.1147 111.142 31.0181 111.285 30.9216L111.498 30.793L113.05 35.8685C111.712 36.6191 110.178 36.998 108.452 36.998C107.274 36.998 106.26 36.7907 105.406 36.3832C104.559 35.965 103.918 35.4074 103.484 34.7104C103.046 34.017 102.733 33.2807 102.545 32.5086C102.363 31.7366 102.274 30.9145 102.274 30.0352V23.0438H99.6552V18.2541H102.274Z" fill="#FF914D"/>
<path d="M130.195 28.2337H117.043C117.043 29.5133 117.455 30.4605 118.281 31.0789C119.107 31.6901 120.003 31.9939 120.971 31.9939C121.986 31.9939 122.786 31.8617 123.377 31.5936C123.964 31.3184 124.633 30.7751 125.384 29.9637L129.91 32.237C128.032 35.411 124.9 36.998 120.516 36.998C117.772 36.998 115.424 36.0615 113.47 34.1814C111.513 32.2941 110.538 30.028 110.538 27.3758C110.538 24.7273 111.513 22.454 113.47 20.556C115.424 18.6616 117.772 17.7108 120.516 17.7108C123.391 17.7108 125.729 18.5508 127.533 20.2272C129.334 21.8964 130.238 24.2805 130.238 27.3758C130.238 27.8048 130.224 28.0907 130.195 28.2337ZM117.228 24.7451H124.117C123.975 23.8015 123.598 23.0795 122.993 22.5719C122.395 22.0572 121.626 21.7999 120.687 21.7999C119.651 21.7999 118.826 22.0715 118.21 22.6148C117.601 23.1581 117.274 23.8694 117.228 24.7451Z" fill="#FF914D"/>
<path d="M137.727 17.7108C138.759 17.7108 139.784 17.8323 140.801 18.0683C141.816 18.3077 142.57 18.5472 143.065 18.7831L143.805 19.1406L141.755 23.2582C140.339 22.4969 138.997 22.1144 137.727 22.1144C137.015 22.1144 136.51 22.1966 136.218 22.3575C135.923 22.5112 135.777 22.7971 135.777 23.2153C135.777 23.3118 135.784 23.4083 135.805 23.5013C135.834 23.5978 135.88 23.6871 135.947 23.7729C136.022 23.8587 136.09 23.9302 136.147 23.9874C136.211 24.0446 136.31 24.1125 136.446 24.1875C136.588 24.2554 136.702 24.3091 136.787 24.3448C136.873 24.3734 137.008 24.427 137.2 24.5021C137.389 24.57 137.527 24.6236 137.613 24.6593C137.705 24.6987 137.869 24.7559 138.097 24.8309C138.325 24.8988 138.495 24.9417 138.609 24.9596C139.339 25.1812 139.976 25.4171 140.517 25.6745C141.058 25.9318 141.627 26.2892 142.225 26.7468C142.83 27.1971 143.299 27.7619 143.634 28.4482C143.965 29.1344 144.132 29.9172 144.132 30.7929C144.132 34.932 141.264 36.998 135.535 36.998C134.232 36.998 133.001 36.7978 131.834 36.3975C130.667 35.9972 129.827 35.5968 129.314 35.1965L128.531 34.5531L131.079 30.2496C131.268 30.4212 131.513 30.6214 131.819 30.8501C132.122 31.0717 132.674 31.3755 133.471 31.7651C134.275 32.1583 134.972 32.3513 135.563 32.3513C136.862 32.3513 137.513 31.9153 137.513 31.036C137.513 30.6357 137.346 30.3283 137.015 30.1066C136.691 29.8779 136.132 29.6205 135.335 29.3346C134.545 29.0486 133.93 28.7877 133.485 28.5482C132.353 27.9585 131.457 27.2901 130.795 26.5466C130.14 25.796 129.812 24.8023 129.812 23.5727C129.812 21.7355 130.524 20.2986 131.948 19.2692C133.371 18.2327 135.296 17.7108 137.727 17.7108Z" fill="#FF914D"/>
<path d="M143.911 36.469V18.2541H150.174V20.17H150.245C151.868 18.5329 153.597 17.7108 155.44 17.7108C156.757 17.7108 157.992 17.9896 159.141 18.5401C160.298 19.0834 161.17 19.9233 161.76 21.0564C163.6 18.826 165.607 17.7108 167.782 17.7108C169.707 17.7108 171.369 18.2613 172.764 19.355C174.159 20.4416 174.856 22.143 174.856 24.4592V36.469H168.593V26.1749C168.593 25.2026 168.326 24.3948 167.796 23.7443C167.262 23.0866 166.465 22.7578 165.404 22.7578C164.483 22.7578 163.782 23.0402 163.298 23.6013C162.821 24.1554 162.561 24.8238 162.515 25.603V36.469H156.252V26.1749C156.252 25.2026 155.985 24.3948 155.455 23.7443C154.921 23.0866 154.124 22.7578 153.063 22.7578C152.102 22.7578 151.384 23.0652 150.9 23.6728C150.416 24.2733 150.174 24.9882 150.174 25.8174V36.469H143.911Z" fill="#FF914D"/>
<path d="M176.007 8.08869C176.737 7.35595 177.609 6.98779 178.626 6.98779C179.641 6.98779 180.512 7.35595 181.246 8.08869C181.975 8.82501 182.342 9.70072 182.342 10.7194C182.342 11.7417 181.975 12.6174 181.246 13.3501C180.512 14.0864 179.641 14.451 178.626 14.451C177.609 14.451 176.737 14.0864 176.007 13.3501C175.274 12.6174 174.911 11.7417 174.911 10.7194C174.911 9.70072 175.274 8.82501 176.007 8.08869ZM175.409 18.2541V36.469H181.673V18.2541H175.409Z" fill="#FF914D"/>
<path d="M183.83 18.2541V11.4629H190.078V18.2541H193.893V23.0438H190.078V28.8342C190.078 30.5142 190.552 31.3506 191.502 31.3506C191.73 31.3506 191.972 31.3041 192.228 31.2076C192.491 31.1147 192.698 31.0181 192.84 30.9216L193.053 30.793L194.605 35.8685C193.267 36.6191 191.733 36.998 190.007 36.998C188.829 36.998 187.815 36.7907 186.961 36.3832C186.114 35.965 185.474 35.4074 185.039 34.7104C184.602 34.017 184.289 33.2807 184.1 32.5086C183.919 31.7366 183.83 30.9145 183.83 30.0352V23.0438H181.21V18.2541H183.83Z" fill="#FF914D"/>
<path d="M193.402 36.469V5.92981H199.665V20.17H199.737C201.359 18.533 203.089 17.7109 204.932 17.7109C205.822 17.7109 206.711 17.8324 207.594 18.0683C208.484 18.3078 209.334 18.6759 210.142 19.1692C210.957 19.666 211.615 20.3702 212.12 21.2852C212.633 22.2002 212.889 23.2582 212.889 24.4592V36.469H206.626V26.1749C206.626 25.2241 206.32 24.3949 205.715 23.6872C205.117 22.9723 204.338 22.6149 203.381 22.6149C202.43 22.6149 201.573 22.983 200.804 23.7158C200.043 24.4521 199.665 25.2706 199.665 26.1749V36.469H193.402Z" fill="#FF914D"/>
<path d="M223.802 28.8628C224.93 28.8628 225.888 29.2631 226.678 30.0638C227.475 30.8573 227.873 31.8188 227.873 32.9518C227.873 34.067 227.475 35.0214 226.678 35.8113C225.888 36.6013 224.93 36.998 223.802 36.998C222.692 36.998 221.742 36.6013 220.955 35.8113C220.165 35.0214 219.774 34.067 219.774 32.9518C219.774 31.8188 220.165 30.8573 220.955 30.0638C221.742 29.2631 222.692 28.8628 223.802 28.8628Z" fill="#FF914D"/>
<defs>
<linearGradient id="paint0_linear_203_2" x1="-0.000366083" y1="0.00131524" x2="39.9427" y2="0.00131524" gradientUnits="userSpaceOnUse">
<stop stop-color="#FFDE59"/>
<stop offset="0.0078125" stop-color="#FFDE59"/>
<stop offset="0.015625" stop-color="#FFDD59"/>
<stop offset="0.0234375" stop-color="#FFDD59"/>
<stop offset="0.03125" stop-color="#FFDC59"/>
<stop offset="0.0390625" stop-color="#FFDB59"/>
<stop offset="0.046875" stop-color="#FFDB58"/>
<stop offset="0.0546875" stop-color="#FFDA58"/>
<stop offset="0.0625" stop-color="#FFDA58"/>
<stop offset="0.0703125" stop-color="#FFD958"/>
<stop offset="0.078125" stop-color="#FFD858"/>
<stop offset="0.0859375" stop-color="#FFD858"/>
<stop offset="0.09375" stop-color="#FFD758"/>
<stop offset="0.101563" stop-color="#FFD758"/>
<stop offset="0.109375" stop-color="#FFD658"/>
<stop offset="0.117188" stop-color="#FFD558"/>
<stop offset="0.125" stop-color="#FFD558"/>
<stop offset="0.132812" stop-color="#FFD457"/>
<stop offset="0.140625" stop-color="#FFD457"/>
<stop offset="0.148437" stop-color="#FFD357"/>
<stop offset="0.15625" stop-color="#FFD257"/>
<stop offset="0.164062" stop-color="#FFD257"/>
<stop offset="0.171875" stop-color="#FFD157"/>
<stop offset="0.179687" stop-color="#FFD157"/>
<stop offset="0.1875" stop-color="#FFD057"/>
<stop offset="0.195312" stop-color="#FFCF57"/>
<stop offset="0.203125" stop-color="#FFCF57"/>
<stop offset="0.210937" stop-color="#FFCE57"/>
<stop offset="0.21875" stop-color="#FFCE56"/>
<stop offset="0.226562" stop-color="#FFCD56"/>
<stop offset="0.234375" stop-color="#FFCC56"/>
<stop offset="0.242187" stop-color="#FFCC56"/>
<stop offset="0.25" stop-color="#FFCB56"/>
<stop offset="0.257812" stop-color="#FFCB56"/>
<stop offset="0.265625" stop-color="#FFCA56"/>
<stop offset="0.273438" stop-color="#FFC956"/>
<stop offset="0.28125" stop-color="#FFC956"/>
<stop offset="0.289062" stop-color="#FFC856"/>
<stop offset="0.296875" stop-color="#FFC855"/>
<stop offset="0.304688" stop-color="#FFC755"/>
<stop offset="0.3125" stop-color="#FFC655"/>
<stop offset="0.320312" stop-color="#FFC655"/>
<stop offset="0.328125" stop-color="#FFC555"/>
<stop offset="0.335938" stop-color="#FFC555"/>
<stop offset="0.34375" stop-color="#FFC455"/>
<stop offset="0.351562" stop-color="#FFC355"/>
<stop offset="0.359375" stop-color="#FFC355"/>
<stop offset="0.367188" stop-color="#FFC255"/>
<stop offset="0.375" stop-color="#FFC255"/>
<stop offset="0.382812" stop-color="#FFC154"/>
<stop offset="0.390625" stop-color="#FFC054"/>
<stop offset="0.398438" stop-color="#FFC054"/>
<stop offset="0.40625" stop-color="#FFBF54"/>
<stop offset="0.414062" stop-color="#FFBF54"/>
<stop offset="0.421875" stop-color="#FFBE54"/>
<stop offset="0.429687" stop-color="#FFBD54"/>
<stop offset="0.4375" stop-color="#FFBD54"/>
<stop offset="0.445312" stop-color="#FFBC54"/>
<stop offset="0.453125" stop-color="#FFBC54"/>
<stop offset="0.460937" stop-color="#FFBB54"/>
<stop offset="0.46875" stop-color="#FFBA53"/>
<stop offset="0.476562" stop-color="#FFBA53"/>
<stop offset="0.484375" stop-color="#FFB953"/>
<stop offset="0.492187" stop-color="#FFB853"/>
<stop offset="0.5" stop-color="#FFB853"/>
<stop offset="0.507812" stop-color="#FFB753"/>
<stop offset="0.515625" stop-color="#FFB753"/>
<stop offset="0.523438" stop-color="#FFB653"/>
<stop offset="0.53125" stop-color="#FFB553"/>
<stop offset="0.539062" stop-color="#FFB553"/>
<stop offset="0.546875" stop-color="#FFB452"/>
<stop offset="0.554688" stop-color="#FFB452"/>
<stop offset="0.5625" stop-color="#FFB352"/>
<stop offset="0.570312" stop-color="#FFB252"/>
<stop offset="0.578125" stop-color="#FFB252"/>
<stop offset="0.585938" stop-color="#FFB152"/>
<stop offset="0.59375" stop-color="#FFB152"/>
<stop offset="0.601562" stop-color="#FFB052"/>
<stop offset="0.609375" stop-color="#FFAF52"/>
<stop offset="0.617188" stop-color="#FFAF52"/>
<stop offset="0.625" stop-color="#FFAE52"/>
<stop offset="0.632812" stop-color="#FFAE51"/>
<stop offset="0.640625" stop-color="#FFAD51"/>
<stop offset="0.648438" stop-color="#FFAC51"/>
<stop offset="0.65625" stop-color="#FFAC51"/>
<stop offset="0.664062" stop-color="#FFAB51"/>
<stop offset="0.671875" stop-color="#FFAB51"/>
<stop offset="0.679688" stop-color="#FFAA51"/>
<stop offset="0.6875" stop-color="#FFA951"/>
<stop offset="0.695312" stop-color="#FFA951"/>
<stop offset="0.703125" stop-color="#FFA851"/>
<stop offset="0.710938" stop-color="#FFA851"/>
<stop offset="0.71875" stop-color="#FFA750"/>
<stop offset="0.726562" stop-color="#FFA650"/>
<stop offset="0.734375" stop-color="#FFA650"/>
<stop offset="0.742188" stop-color="#FFA550"/>
<stop offset="0.75" stop-color="#FFA550"/>
<stop offset="0.757812" stop-color="#FFA450"/>
<stop offset="0.765625" stop-color="#FFA350"/>
<stop offset="0.773438" stop-color="#FFA350"/>
<stop offset="0.78125" stop-color="#FFA250"/>
<stop offset="0.789062" stop-color="#FFA250"/>
<stop offset="0.796875" stop-color="#FFA14F"/>
<stop offset="0.804688" stop-color="#FFA04F"/>
<stop offset="0.8125" stop-color="#FFA04F"/>
<stop offset="0.820312" stop-color="#FF9F4F"/>
<stop offset="0.828125" stop-color="#FF9F4F"/>
<stop offset="0.835937" stop-color="#FF9E4F"/>
<stop offset="0.84375" stop-color="#FF9D4F"/>
<stop offset="0.851562" stop-color="#FF9D4F"/>
<stop offset="0.859375" stop-color="#FF9C4F"/>
<stop offset="0.867187" stop-color="#FF9C4F"/>
<stop offset="0.875" stop-color="#FF9B4F"/>
<stop offset="0.882812" stop-color="#FF9A4E"/>
<stop offset="0.890625" stop-color="#FF9A4E"/>
<stop offset="0.898437" stop-color="#FF994E"/>
<stop offset="0.90625" stop-color="#FF994E"/>
<stop offset="0.914062" stop-color="#FF984E"/>
<stop offset="0.921875" stop-color="#FF974E"/>
<stop offset="0.929687" stop-color="#FF974E"/>
<stop offset="0.9375" stop-color="#FF964E"/>
<stop offset="0.945312" stop-color="#FF964E"/>
<stop offset="0.953125" stop-color="#FF954E"/>
<stop offset="0.960937" stop-color="#FF944E"/>
<stop offset="0.96875" stop-color="#FF944D"/>
<stop offset="0.976562" stop-color="#FF934D"/>
<stop offset="0.984375" stop-color="#FF934D"/>
<stop offset="0.992188" stop-color="#FF924D"/>
<stop offset="1" stop-color="#FF914D"/>
</linearGradient>
</defs>
</svg>
